<mxfile host="app.diagrams.net" modified="2022-11-03T01:30:31.374Z" agent="5.0 (Windows NT 10.0; Win64; x64) AppleWebKit/537.36 (KHTML, like Gecko) Chrome/106.0.0.0 Safari/537.36" etag="77SfrTS2gSugWq5oJ0JY" version="20.5.1" type="github">
  <diagram id="4mWGP6C0_agD9LdeZA-2" name="第 1 页">
    <mxGraphModel dx="1422" dy="794" grid="1" gridSize="10" guides="1" tooltips="1" connect="1" arrows="1" fold="1" page="1" pageScale="1" pageWidth="827" pageHeight="1169" math="0" shadow="0">
      <root>
        <mxCell id="0" />
        <mxCell id="1" parent="0" />
        <mxCell id="b3holdgG_RNo89Ya_sJd-43" value="" style="rounded=0;whiteSpace=wrap;html=1;dashed=1;fontSize=14;strokeColor=#666666;fillColor=#f5f5f5;fontColor=#333333;" parent="1" vertex="1">
          <mxGeometry x="161" y="345" width="599" height="40" as="geometry" />
        </mxCell>
        <mxCell id="b3holdgG_RNo89Ya_sJd-10" value="" style="aspect=fixed;html=1;points=[];align=center;image;fontSize=12;image=img/lib/azure2/networking/Network_Security_Groups.svg;fontFamily=Helvetica;fontColor=default;strokeColor=default;fillColor=default;" parent="1" vertex="1">
          <mxGeometry x="315" y="353" width="319.46" height="32" as="geometry" />
        </mxCell>
        <mxCell id="b3holdgG_RNo89Ya_sJd-9" value="" style="aspect=fixed;html=1;points=[];align=center;image;fontSize=12;image=img/lib/azure2/networking/Azure_Firewall_Manager.svg;" parent="1" vertex="1">
          <mxGeometry x="338" y="353" width="37.33" height="32" as="geometry" />
        </mxCell>
        <mxCell id="b3holdgG_RNo89Ya_sJd-11" value="" style="aspect=fixed;html=1;points=[];align=center;image;fontSize=12;image=img/lib/azure2/networking/Local_Network_Gateways.svg;" parent="1" vertex="1">
          <mxGeometry x="576" y="348" width="37" height="37" as="geometry" />
        </mxCell>
        <mxCell id="b3holdgG_RNo89Ya_sJd-44" value="&lt;span style=&quot;font-size: 14px;&quot;&gt;&lt;b&gt;安全防护&lt;/b&gt;&lt;/span&gt;" style="text;html=1;strokeColor=none;fillColor=none;align=center;verticalAlign=middle;whiteSpace=wrap;rounded=0;" parent="1" vertex="1">
          <mxGeometry x="180" y="350" width="60" height="30" as="geometry" />
        </mxCell>
        <mxCell id="hv4VRGCx0HbVGVnPJ9qQ-4" value="" style="rounded=0;whiteSpace=wrap;html=1;dashed=1;fontSize=14;strokeColor=#666666;fillColor=#f5f5f5;fontColor=#333333;" parent="1" vertex="1">
          <mxGeometry x="162" y="75" width="599" height="40" as="geometry" />
        </mxCell>
        <mxCell id="hv4VRGCx0HbVGVnPJ9qQ-5" value="" style="aspect=fixed;html=1;points=[];align=center;image;fontSize=12;image=img/lib/azure2/networking/Network_Security_Groups.svg;fontFamily=Helvetica;fontColor=default;strokeColor=default;fillColor=default;" parent="1" vertex="1">
          <mxGeometry x="316" y="83" width="319.46" height="32" as="geometry" />
        </mxCell>
        <mxCell id="hv4VRGCx0HbVGVnPJ9qQ-6" value="" style="aspect=fixed;html=1;points=[];align=center;image;fontSize=12;image=img/lib/azure2/networking/Azure_Firewall_Manager.svg;" parent="1" vertex="1">
          <mxGeometry x="339" y="83" width="37.33" height="32" as="geometry" />
        </mxCell>
        <mxCell id="hv4VRGCx0HbVGVnPJ9qQ-7" value="" style="aspect=fixed;html=1;points=[];align=center;image;fontSize=12;image=img/lib/azure2/networking/Local_Network_Gateways.svg;" parent="1" vertex="1">
          <mxGeometry x="577" y="78" width="37" height="37" as="geometry" />
        </mxCell>
        <mxCell id="hv4VRGCx0HbVGVnPJ9qQ-8" value="&lt;span style=&quot;font-size: 14px;&quot;&gt;&lt;b&gt;安全防护&lt;/b&gt;&lt;/span&gt;" style="text;html=1;strokeColor=none;fillColor=none;align=center;verticalAlign=middle;whiteSpace=wrap;rounded=0;" parent="1" vertex="1">
          <mxGeometry x="181" y="80" width="60" height="30" as="geometry" />
        </mxCell>
        <mxCell id="b3holdgG_RNo89Ya_sJd-118" value="" style="rounded=0;whiteSpace=wrap;html=1;dashed=1;strokeColor=#7EA6E0;fontSize=14;" parent="1" vertex="1">
          <mxGeometry x="270" y="5" width="370" height="60" as="geometry" />
        </mxCell>
        <mxCell id="b3holdgG_RNo89Ya_sJd-13" value="" style="rounded=0;whiteSpace=wrap;html=1;fillColor=#dae8fc;strokeColor=#6c8ebf;" parent="1" vertex="1">
          <mxGeometry x="161" y="390" width="600" height="420" as="geometry" />
        </mxCell>
        <mxCell id="b3holdgG_RNo89Ya_sJd-4" value="" style="rounded=0;whiteSpace=wrap;html=1;fillColor=#fad9d5;strokeColor=#ae4132;" parent="1" vertex="1">
          <mxGeometry x="161" y="120" width="600" height="220" as="geometry" />
        </mxCell>
        <mxCell id="b3holdgG_RNo89Ya_sJd-12" value="&lt;b&gt;&lt;font style=&quot;font-size: 14px;&quot;&gt;互联网区&lt;/font&gt;&lt;/b&gt;" style="text;html=1;strokeColor=none;fillColor=none;align=center;verticalAlign=middle;whiteSpace=wrap;rounded=0;" parent="1" vertex="1">
          <mxGeometry x="180" y="120" width="60" height="30" as="geometry" />
        </mxCell>
        <mxCell id="b3holdgG_RNo89Ya_sJd-14" value="&lt;b&gt;&lt;font style=&quot;font-size: 14px;&quot;&gt;政务外网区&lt;/font&gt;&lt;/b&gt;" style="text;html=1;strokeColor=none;fillColor=none;align=center;verticalAlign=middle;whiteSpace=wrap;rounded=0;" parent="1" vertex="1">
          <mxGeometry x="171" y="397" width="80" height="30" as="geometry" />
        </mxCell>
        <mxCell id="r9kRth-0osAs2FGmXrBW-8" style="edgeStyle=orthogonalEdgeStyle;rounded=1;orthogonalLoop=1;jettySize=auto;html=1;entryX=0.46;entryY=-0.042;entryDx=0;entryDy=0;entryPerimeter=0;strokeColor=#00CC00;strokeWidth=2;" parent="1" edge="1">
          <mxGeometry relative="1" as="geometry">
            <mxPoint x="373.5" y="700" as="sourcePoint" />
            <mxPoint x="374" y="722.9839999999999" as="targetPoint" />
          </mxGeometry>
        </mxCell>
        <mxCell id="b3holdgG_RNo89Ya_sJd-23" value="" style="rounded=0;whiteSpace=wrap;html=1;dashed=1;fontSize=14;" parent="1" vertex="1">
          <mxGeometry x="255" y="429" width="235" height="271" as="geometry" />
        </mxCell>
        <mxCell id="b3holdgG_RNo89Ya_sJd-121" style="edgeStyle=orthogonalEdgeStyle;rounded=0;orthogonalLoop=1;jettySize=auto;html=1;entryX=0.576;entryY=0.983;entryDx=0;entryDy=0;entryPerimeter=0;fontSize=14;strokeColor=#3333FF;" parent="1" edge="1">
          <mxGeometry relative="1" as="geometry">
            <Array as="points">
              <mxPoint x="643" y="190" />
              <mxPoint x="486" y="190" />
            </Array>
            <mxPoint x="642.9" y="221.02" as="sourcePoint" />
            <mxPoint x="486.01999999999987" y="65.00000000000001" as="targetPoint" />
          </mxGeometry>
        </mxCell>
        <mxCell id="b3holdgG_RNo89Ya_sJd-122" value="&lt;b&gt;4&lt;/b&gt;-to-login" style="edgeLabel;html=1;align=center;verticalAlign=middle;resizable=0;points=[];fontSize=14;" parent="b3holdgG_RNo89Ya_sJd-121" vertex="1" connectable="0">
          <mxGeometry x="0.5713" y="-1" relative="1" as="geometry">
            <mxPoint x="-5" y="49" as="offset" />
          </mxGeometry>
        </mxCell>
        <mxCell id="b3holdgG_RNo89Ya_sJd-119" style="edgeStyle=orthogonalEdgeStyle;rounded=0;orthogonalLoop=1;jettySize=auto;html=1;fontSize=14;strokeColor=#3333FF;" parent="1" source="b3holdgG_RNo89Ya_sJd-20" edge="1">
          <mxGeometry relative="1" as="geometry">
            <mxPoint x="380" y="60" as="targetPoint" />
            <Array as="points">
              <mxPoint x="380" y="240" />
            </Array>
          </mxGeometry>
        </mxCell>
        <mxCell id="b3holdgG_RNo89Ya_sJd-120" value="&lt;b&gt;2&lt;/b&gt;-forward" style="edgeLabel;html=1;align=center;verticalAlign=middle;resizable=0;points=[];fontSize=14;" parent="b3holdgG_RNo89Ya_sJd-119" vertex="1" connectable="0">
          <mxGeometry x="-0.0073" y="-1" relative="1" as="geometry">
            <mxPoint x="-6" y="-46" as="offset" />
          </mxGeometry>
        </mxCell>
        <mxCell id="b3holdgG_RNo89Ya_sJd-20" value="Xapp" style="aspect=fixed;perimeter=ellipsePerimeter;html=1;align=center;shadow=0;dashed=0;fontColor=#4277BB;labelBackgroundColor=#ffffff;fontSize=12;spacingTop=3;image;image=img/lib/ibm/vpc/Instance.svg;" parent="1" vertex="1">
          <mxGeometry x="241" y="220" width="60" height="60" as="geometry" />
        </mxCell>
        <mxCell id="b3holdgG_RNo89Ya_sJd-126" style="edgeStyle=orthogonalEdgeStyle;rounded=0;orthogonalLoop=1;jettySize=auto;html=1;entryX=1;entryY=0.5;entryDx=0;entryDy=0;fontSize=14;strokeColor=#3333FF;" parent="1" source="b3holdgG_RNo89Ya_sJd-32" target="b3holdgG_RNo89Ya_sJd-20" edge="1">
          <mxGeometry relative="1" as="geometry" />
        </mxCell>
        <mxCell id="b3holdgG_RNo89Ya_sJd-127" value="&lt;b&gt;6&lt;/b&gt;-callback" style="edgeLabel;html=1;align=center;verticalAlign=middle;resizable=0;points=[];fontSize=14;" parent="b3holdgG_RNo89Ya_sJd-126" vertex="1" connectable="0">
          <mxGeometry x="-0.313" y="1" relative="1" as="geometry">
            <mxPoint as="offset" />
          </mxGeometry>
        </mxCell>
        <mxCell id="b3holdgG_RNo89Ya_sJd-32" value="idp" style="aspect=fixed;perimeter=ellipsePerimeter;html=1;align=center;shadow=0;dashed=0;fontColor=#4277BB;labelBackgroundColor=#ffffff;fontSize=12;spacingTop=3;image;image=img/lib/ibm/vpc/Instance.svg;" parent="1" vertex="1">
          <mxGeometry x="431" y="220" width="60" height="60" as="geometry" />
        </mxCell>
        <mxCell id="b3holdgG_RNo89Ya_sJd-51" style="edgeStyle=orthogonalEdgeStyle;rounded=0;orthogonalLoop=1;jettySize=auto;html=1;fontSize=14;exitX=0.154;exitY=0.983;exitDx=0;exitDy=0;exitPerimeter=0;strokeColor=#3333FF;" parent="1" source="b3holdgG_RNo89Ya_sJd-118" target="b3holdgG_RNo89Ya_sJd-20" edge="1">
          <mxGeometry relative="1" as="geometry">
            <Array as="points">
              <mxPoint x="327" y="153" />
              <mxPoint x="270" y="153" />
            </Array>
          </mxGeometry>
        </mxCell>
        <mxCell id="b3holdgG_RNo89Ya_sJd-52" value="&lt;b&gt;1&lt;/b&gt;-access" style="edgeLabel;html=1;align=center;verticalAlign=middle;resizable=0;points=[];fontSize=14;" parent="b3holdgG_RNo89Ya_sJd-51" vertex="1" connectable="0">
          <mxGeometry x="-0.2174" y="4" relative="1" as="geometry">
            <mxPoint x="2" y="-19" as="offset" />
          </mxGeometry>
        </mxCell>
        <mxCell id="r9kRth-0osAs2FGmXrBW-9" style="edgeStyle=orthogonalEdgeStyle;rounded=1;orthogonalLoop=1;jettySize=auto;html=1;strokeColor=#00CC00;strokeWidth=2;exitX=1;exitY=0.5;exitDx=0;exitDy=0;entryX=0.021;entryY=0.446;entryDx=0;entryDy=0;entryPerimeter=0;" parent="1" source="b3holdgG_RNo89Ya_sJd-56" target="b3holdgG_RNo89Ya_sJd-23" edge="1">
          <mxGeometry relative="1" as="geometry">
            <mxPoint x="250" y="550" as="targetPoint" />
            <Array as="points">
              <mxPoint x="240" y="595" />
              <mxPoint x="240" y="550" />
            </Array>
          </mxGeometry>
        </mxCell>
        <mxCell id="PIOF4UT4fwyQFqVbf_Kq-12" style="edgeStyle=orthogonalEdgeStyle;rounded=1;orthogonalLoop=1;jettySize=auto;html=1;strokeColor=#006633;strokeWidth=2;" edge="1" parent="1" source="b3holdgG_RNo89Ya_sJd-56">
          <mxGeometry relative="1" as="geometry">
            <mxPoint x="520" y="595" as="targetPoint" />
          </mxGeometry>
        </mxCell>
        <mxCell id="b3holdgG_RNo89Ya_sJd-56" value="" style="rounded=0;whiteSpace=wrap;html=1;dashed=1;strokeColor=#7EA6E0;fontSize=14;" parent="1" vertex="1">
          <mxGeometry x="176" y="430" width="60" height="330" as="geometry" />
        </mxCell>
        <mxCell id="b3holdgG_RNo89Ya_sJd-57" value="&lt;b&gt;&lt;font style=&quot;font-size: 14px;&quot;&gt;操作间&lt;/font&gt;&lt;/b&gt;" style="text;html=1;strokeColor=none;fillColor=none;align=center;verticalAlign=middle;whiteSpace=wrap;rounded=0;" parent="1" vertex="1">
          <mxGeometry x="176" y="442" width="60" height="30" as="geometry" />
        </mxCell>
        <mxCell id="b3holdgG_RNo89Ya_sJd-58" value="" style="fontColor=#0066CC;verticalAlign=top;verticalLabelPosition=bottom;labelPosition=center;align=center;html=1;outlineConnect=0;fillColor=#CCCCCC;strokeColor=#6881B3;gradientColor=none;gradientDirection=north;strokeWidth=2;shape=mxgraph.networks.terminal;" parent="1" vertex="1">
          <mxGeometry x="186" y="501" width="40" height="40" as="geometry" />
        </mxCell>
        <mxCell id="b3holdgG_RNo89Ya_sJd-59" value="" style="fontColor=#0066CC;verticalAlign=top;verticalLabelPosition=bottom;labelPosition=center;align=center;html=1;outlineConnect=0;fillColor=#CCCCCC;strokeColor=#6881B3;gradientColor=none;gradientDirection=north;strokeWidth=2;shape=mxgraph.networks.terminal;" parent="1" vertex="1">
          <mxGeometry x="186" y="580" width="40" height="40" as="geometry" />
        </mxCell>
        <mxCell id="b3holdgG_RNo89Ya_sJd-62" value="" style="rounded=0;whiteSpace=wrap;html=1;dashed=1;strokeColor=#0e8088;fontSize=14;fillColor=#b0e3e6;" parent="1" vertex="1">
          <mxGeometry x="289" y="606" width="199" height="90" as="geometry" />
        </mxCell>
        <mxCell id="b3holdgG_RNo89Ya_sJd-65" value="" style="verticalLabelPosition=bottom;html=1;verticalAlign=top;align=center;strokeColor=none;fillColor=#00BEF2;shape=mxgraph.azure.mysql_database;dashed=1;fontSize=14;" parent="1" vertex="1">
          <mxGeometry x="319" y="610" width="40" height="42" as="geometry" />
        </mxCell>
        <mxCell id="b3holdgG_RNo89Ya_sJd-68" value="" style="sketch=0;aspect=fixed;html=1;points=[];align=center;image;fontSize=12;image=img/lib/mscae/Cache_Redis_Product.svg;dashed=1;strokeColor=#7EA6E0;" parent="1" vertex="1">
          <mxGeometry x="320" y="655.2" width="40" height="33.6" as="geometry" />
        </mxCell>
        <mxCell id="b3holdgG_RNo89Ya_sJd-69" value="" style="sketch=0;points=[[0,0,0],[0.25,0,0],[0.5,0,0],[0.75,0,0],[1,0,0],[0,1,0],[0.25,1,0],[0.5,1,0],[0.75,1,0],[1,1,0],[0,0.25,0],[0,0.5,0],[0,0.75,0],[1,0.25,0],[1,0.5,0],[1,0.75,0]];outlineConnect=0;fontColor=#232F3E;gradientColor=#945DF2;gradientDirection=north;fillColor=#5A30B5;strokeColor=#ffffff;dashed=0;verticalLabelPosition=bottom;verticalAlign=top;align=center;html=1;fontSize=12;fontStyle=0;aspect=fixed;shape=mxgraph.aws4.resourceIcon;resIcon=mxgraph.aws4.managed_streaming_for_kafka;" parent="1" vertex="1">
          <mxGeometry x="410" y="613.5" width="35" height="35" as="geometry" />
        </mxCell>
        <mxCell id="b3holdgG_RNo89Ya_sJd-92" value="usermanagement &lt;br&gt;前端" style="aspect=fixed;perimeter=ellipsePerimeter;html=1;align=center;shadow=0;dashed=0;fontColor=#4277BB;labelBackgroundColor=#ffffff;fontSize=12;spacingTop=3;image;image=img/lib/ibm/vpc/Instance.svg;" parent="1" vertex="1">
          <mxGeometry x="610" y="220" width="60" height="60" as="geometry" />
        </mxCell>
        <mxCell id="b3holdgG_RNo89Ya_sJd-107" style="edgeStyle=orthogonalEdgeStyle;rounded=0;orthogonalLoop=1;jettySize=auto;html=1;entryX=0;entryY=0.5;entryDx=0;entryDy=0;fontSize=14;exitX=0.392;exitY=1.017;exitDx=0;exitDy=0;exitPerimeter=0;strokeColor=#6666FF;strokeWidth=1;" parent="1" target="b3holdgG_RNo89Ya_sJd-92" edge="1">
          <mxGeometry relative="1" as="geometry">
            <mxPoint x="415.03999999999996" y="68.01999999999998" as="sourcePoint" />
            <Array as="points">
              <mxPoint x="415" y="210" />
              <mxPoint x="580" y="210" />
              <mxPoint x="580" y="250" />
            </Array>
            <mxPoint x="640" y="222" as="targetPoint" />
          </mxGeometry>
        </mxCell>
        <mxCell id="b3holdgG_RNo89Ya_sJd-108" value="&lt;b&gt;3&lt;/b&gt;-login-flow" style="edgeLabel;html=1;align=center;verticalAlign=middle;resizable=0;points=[];fontSize=14;" parent="b3holdgG_RNo89Ya_sJd-107" vertex="1" connectable="0">
          <mxGeometry x="-0.0341" y="2" relative="1" as="geometry">
            <mxPoint x="-26" y="-48" as="offset" />
          </mxGeometry>
        </mxCell>
        <mxCell id="b3holdgG_RNo89Ya_sJd-115" value="" style="dashed=0;outlineConnect=0;html=1;align=center;labelPosition=center;verticalLabelPosition=bottom;verticalAlign=top;shape=mxgraph.weblogos.chrome;strokeColor=#7EA6E0;fontSize=14;" parent="1" vertex="1">
          <mxGeometry x="427.6" y="10" width="54.8" height="50" as="geometry" />
        </mxCell>
        <mxCell id="b3holdgG_RNo89Ya_sJd-116" value="" style="dashed=0;outlineConnect=0;html=1;align=center;labelPosition=center;verticalLabelPosition=bottom;verticalAlign=top;shape=mxgraph.weblogos.chrome;strokeColor=#7EA6E0;fontSize=14;" parent="1" vertex="1">
          <mxGeometry x="300" y="10" width="54.8" height="50" as="geometry" />
        </mxCell>
        <mxCell id="b3holdgG_RNo89Ya_sJd-117" value="" style="dashed=0;outlineConnect=0;html=1;align=center;labelPosition=center;verticalLabelPosition=bottom;verticalAlign=top;shape=mxgraph.weblogos.chrome;strokeColor=#7EA6E0;fontSize=14;" parent="1" vertex="1">
          <mxGeometry x="558.2" y="10" width="54.8" height="50" as="geometry" />
        </mxCell>
        <mxCell id="PIOF4UT4fwyQFqVbf_Kq-2" style="edgeStyle=orthogonalEdgeStyle;rounded=1;orthogonalLoop=1;jettySize=auto;html=1;entryX=0.5;entryY=0;entryDx=0;entryDy=0;strokeColor=#00CC00;strokeWidth=2;" edge="1" parent="1" source="hv4VRGCx0HbVGVnPJ9qQ-22" target="b3holdgG_RNo89Ya_sJd-62">
          <mxGeometry relative="1" as="geometry" />
        </mxCell>
        <mxCell id="hv4VRGCx0HbVGVnPJ9qQ-22" value="" style="rounded=0;whiteSpace=wrap;html=1;dashed=1;fillColor=#b1ddf0;strokeColor=#10739e;" parent="1" vertex="1">
          <mxGeometry x="289" y="431.5" width="199" height="157.71" as="geometry" />
        </mxCell>
        <mxCell id="hv4VRGCx0HbVGVnPJ9qQ-11" value="slb" style="rounded=0;whiteSpace=wrap;html=1;dashed=1;align=left;fontStyle=1;fontSize=14;spacingRight=22;spacingTop=0;spacingLeft=20;fillColor=#f8cecc;gradientColor=#ea6b66;strokeColor=#b85450;" parent="1" vertex="1">
          <mxGeometry x="255" y="394" width="500" height="30" as="geometry" />
        </mxCell>
        <mxCell id="b3holdgG_RNo89Ya_sJd-124" style="edgeStyle=orthogonalEdgeStyle;rounded=0;orthogonalLoop=1;jettySize=auto;html=1;entryX=1;entryY=0.5;entryDx=0;entryDy=0;fontSize=14;strokeColor=#3333FF;" parent="1" source="b3holdgG_RNo89Ya_sJd-118" target="b3holdgG_RNo89Ya_sJd-32" edge="1">
          <mxGeometry relative="1" as="geometry">
            <Array as="points">
              <mxPoint x="530" y="250" />
            </Array>
          </mxGeometry>
        </mxCell>
        <mxCell id="b3holdgG_RNo89Ya_sJd-125" value="&lt;b&gt;5&lt;/b&gt;-login" style="edgeLabel;html=1;align=center;verticalAlign=middle;resizable=0;points=[];fontSize=14;" parent="b3holdgG_RNo89Ya_sJd-124" vertex="1" connectable="0">
          <mxGeometry x="0.0902" relative="1" as="geometry">
            <mxPoint y="13" as="offset" />
          </mxGeometry>
        </mxCell>
        <mxCell id="hv4VRGCx0HbVGVnPJ9qQ-15" value="" style="fontColor=#0066CC;verticalAlign=top;verticalLabelPosition=bottom;labelPosition=center;align=center;html=1;outlineConnect=0;fillColor=#CCCCCC;strokeColor=#6881B3;gradientColor=none;gradientDirection=north;strokeWidth=2;shape=mxgraph.networks.terminal;" parent="1" vertex="1">
          <mxGeometry x="186" y="665" width="40" height="40" as="geometry" />
        </mxCell>
        <mxCell id="b3holdgG_RNo89Ya_sJd-71" value="" style="sketch=0;html=1;dashed=0;whitespace=wrap;fillColor=#2875E2;strokeColor=#ffffff;points=[[0.005,0.63,0],[0.1,0.2,0],[0.9,0.2,0],[0.5,0,0],[0.995,0.63,0],[0.72,0.99,0],[0.5,1,0],[0.28,0.99,0]];shape=mxgraph.kubernetes.icon;prIcon=pod;fontSize=14;" parent="1" vertex="1">
          <mxGeometry x="315" y="433" width="50" height="48" as="geometry" />
        </mxCell>
        <mxCell id="b3holdgG_RNo89Ya_sJd-72" value="" style="sketch=0;html=1;dashed=0;whitespace=wrap;fillColor=#2875E2;strokeColor=#ffffff;points=[[0.005,0.63,0],[0.1,0.2,0],[0.9,0.2,0],[0.5,0,0],[0.995,0.63,0],[0.72,0.99,0],[0.5,1,0],[0.28,0.99,0]];shape=mxgraph.kubernetes.icon;prIcon=pod;fontSize=14;" parent="1" vertex="1">
          <mxGeometry x="315" y="508" width="50" height="48" as="geometry" />
        </mxCell>
        <mxCell id="b3holdgG_RNo89Ya_sJd-73" value="" style="sketch=0;html=1;dashed=0;whitespace=wrap;fillColor=#2875E2;strokeColor=#ffffff;points=[[0.005,0.63,0],[0.1,0.2,0],[0.9,0.2,0],[0.5,0,0],[0.995,0.63,0],[0.72,0.99,0],[0.5,1,0],[0.28,0.99,0]];shape=mxgraph.kubernetes.icon;prIcon=pod;fontSize=14;" parent="1" vertex="1">
          <mxGeometry x="390" y="516.4" width="50" height="48" as="geometry" />
        </mxCell>
        <mxCell id="b3holdgG_RNo89Ya_sJd-74" value="" style="sketch=0;html=1;dashed=0;whitespace=wrap;fillColor=#2875E2;strokeColor=#ffffff;points=[[0.005,0.63,0],[0.1,0.2,0],[0.9,0.2,0],[0.5,0,0],[0.995,0.63,0],[0.72,0.99,0],[0.5,1,0],[0.28,0.99,0]];shape=mxgraph.kubernetes.icon;prIcon=pod;fontSize=14;" parent="1" vertex="1">
          <mxGeometry x="389" y="433" width="50" height="48" as="geometry" />
        </mxCell>
        <mxCell id="b3holdgG_RNo89Ya_sJd-76" value="idp" style="text;html=1;strokeColor=none;fillColor=none;align=center;verticalAlign=middle;whiteSpace=wrap;rounded=0;dashed=1;fontSize=14;" parent="1" vertex="1">
          <mxGeometry x="310" y="480" width="60" height="30" as="geometry" />
        </mxCell>
        <mxCell id="b3holdgG_RNo89Ya_sJd-77" value="user&lt;br&gt;management" style="text;html=1;strokeColor=none;fillColor=none;align=center;verticalAlign=middle;whiteSpace=wrap;rounded=0;dashed=1;fontSize=14;" parent="1" vertex="1">
          <mxGeometry x="315" y="556" width="60" height="30" as="geometry" />
        </mxCell>
        <mxCell id="b3holdgG_RNo89Ya_sJd-83" value="oauth server" style="text;html=1;strokeColor=none;fillColor=none;align=center;verticalAlign=middle;whiteSpace=wrap;rounded=0;dashed=1;fontSize=14;" parent="1" vertex="1">
          <mxGeometry x="384" y="480.99999999999994" width="60" height="30" as="geometry" />
        </mxCell>
        <mxCell id="hv4VRGCx0HbVGVnPJ9qQ-24" value="&lt;b&gt;vpc1&lt;/b&gt;" style="text;html=1;strokeColor=none;fillColor=none;align=center;verticalAlign=middle;whiteSpace=wrap;rounded=0;dashed=1;" parent="1" vertex="1">
          <mxGeometry x="255" y="430" width="35" height="38" as="geometry" />
        </mxCell>
        <mxCell id="hv4VRGCx0HbVGVnPJ9qQ-61" style="edgeStyle=orthogonalEdgeStyle;rounded=1;jumpSize=7;orthogonalLoop=1;jettySize=auto;html=1;entryX=0;entryY=0.5;entryDx=0;entryDy=0;strokeColor=#00CC00;strokeWidth=2;fontSize=14;fontColor=#000000;" parent="1" source="hv4VRGCx0HbVGVnPJ9qQ-26" target="hv4VRGCx0HbVGVnPJ9qQ-45" edge="1">
          <mxGeometry relative="1" as="geometry" />
        </mxCell>
        <mxCell id="hv4VRGCx0HbVGVnPJ9qQ-26" value="" style="rounded=0;whiteSpace=wrap;html=1;dashed=1;" parent="1" vertex="1">
          <mxGeometry x="255" y="720" width="305" height="82" as="geometry" />
        </mxCell>
        <mxCell id="hv4VRGCx0HbVGVnPJ9qQ-28" value="&lt;b&gt;数据湖&lt;/b&gt;" style="text;html=1;strokeColor=none;fillColor=none;align=center;verticalAlign=middle;whiteSpace=wrap;rounded=0;dashed=1;" parent="1" vertex="1">
          <mxGeometry x="266" y="712" width="40" height="90" as="geometry" />
        </mxCell>
        <mxCell id="b3holdgG_RNo89Ya_sJd-39" style="edgeStyle=orthogonalEdgeStyle;rounded=0;orthogonalLoop=1;jettySize=auto;html=1;fontSize=14;" parent="1" source="b3holdgG_RNo89Ya_sJd-32" target="b3holdgG_RNo89Ya_sJd-74" edge="1">
          <mxGeometry relative="1" as="geometry">
            <mxPoint x="495" y="365" as="targetPoint" />
          </mxGeometry>
        </mxCell>
        <mxCell id="b3holdgG_RNo89Ya_sJd-94" value="api" style="edgeLabel;html=1;align=center;verticalAlign=middle;resizable=0;points=[];fontSize=14;" parent="b3holdgG_RNo89Ya_sJd-39" vertex="1" connectable="0">
          <mxGeometry x="0.3826" y="-2" relative="1" as="geometry">
            <mxPoint as="offset" />
          </mxGeometry>
        </mxCell>
        <mxCell id="hv4VRGCx0HbVGVnPJ9qQ-40" value="" style="sketch=0;aspect=fixed;html=1;points=[];align=center;image;fontSize=12;image=img/lib/mscae/Azure_Database_for_PostgreSQL_servers.svg;dashed=1;" parent="1" vertex="1">
          <mxGeometry x="470.00000000000006" y="725" width="38" height="50" as="geometry" />
        </mxCell>
        <mxCell id="hv4VRGCx0HbVGVnPJ9qQ-42" value="" style="sketch=0;aspect=fixed;html=1;points=[];align=center;image;fontSize=12;image=img/lib/mscae/HDInsight.svg;dashed=1;" parent="1" vertex="1">
          <mxGeometry x="350" y="725" width="50" height="48" as="geometry" />
        </mxCell>
        <mxCell id="hv4VRGCx0HbVGVnPJ9qQ-43" value="&lt;font color=&quot;#000000&quot;&gt;hadoop&lt;/font&gt;" style="text;html=1;strokeColor=none;fillColor=none;align=center;verticalAlign=middle;whiteSpace=wrap;rounded=0;dashed=1;fontSize=14;fontColor=#6666FF;" parent="1" vertex="1">
          <mxGeometry x="345" y="774" width="60" height="30" as="geometry" />
        </mxCell>
        <mxCell id="hv4VRGCx0HbVGVnPJ9qQ-44" value="&lt;font color=&quot;#000000&quot;&gt;mpp&lt;/font&gt;" style="text;html=1;strokeColor=none;fillColor=none;align=center;verticalAlign=middle;whiteSpace=wrap;rounded=0;dashed=1;fontSize=14;fontColor=#6666FF;" parent="1" vertex="1">
          <mxGeometry x="459" y="774" width="60" height="30" as="geometry" />
        </mxCell>
        <mxCell id="hv4VRGCx0HbVGVnPJ9qQ-45" value="" style="rounded=0;whiteSpace=wrap;html=1;dashed=1;" parent="1" vertex="1">
          <mxGeometry x="588" y="720" width="166" height="83" as="geometry" />
        </mxCell>
        <mxCell id="hv4VRGCx0HbVGVnPJ9qQ-46" value="&lt;b&gt;前置机&lt;/b&gt;" style="text;html=1;strokeColor=none;fillColor=none;align=center;verticalAlign=middle;whiteSpace=wrap;rounded=0;dashed=1;" parent="1" vertex="1">
          <mxGeometry x="597" y="715" width="40" height="90" as="geometry" />
        </mxCell>
        <mxCell id="hv4VRGCx0HbVGVnPJ9qQ-48" value="" style="dashed=0;outlineConnect=0;html=1;align=center;labelPosition=center;verticalLabelPosition=bottom;verticalAlign=top;shape=mxgraph.webicons.oracle;fillColor=#FA3743;gradientColor=#E10E11;fontSize=14;fontColor=#6666FF;" parent="1" vertex="1">
          <mxGeometry x="656" y="726" width="70" height="70" as="geometry" />
        </mxCell>
        <mxCell id="hv4VRGCx0HbVGVnPJ9qQ-49" value="" style="sketch=0;aspect=fixed;html=1;points=[];align=center;image;fontSize=12;image=img/lib/mscae/Kubernetes.svg;dashed=1;fontColor=#000000;" parent="1" vertex="1">
          <mxGeometry x="289" y="432" width="17.71" height="17" as="geometry" />
        </mxCell>
        <mxCell id="r9kRth-0osAs2FGmXrBW-7" style="edgeStyle=orthogonalEdgeStyle;rounded=1;orthogonalLoop=1;jettySize=auto;html=1;strokeWidth=2;strokeColor=#00CC00;" parent="1" source="r9kRth-0osAs2FGmXrBW-3" edge="1">
          <mxGeometry relative="1" as="geometry">
            <mxPoint x="490" y="565" as="targetPoint" />
          </mxGeometry>
        </mxCell>
        <mxCell id="r9kRth-0osAs2FGmXrBW-3" value="" style="rounded=0;whiteSpace=wrap;html=1;dashed=1;fontSize=14;" parent="1" vertex="1">
          <mxGeometry x="521" y="430" width="234" height="271" as="geometry" />
        </mxCell>
        <mxCell id="hv4VRGCx0HbVGVnPJ9qQ-63" style="edgeStyle=orthogonalEdgeStyle;rounded=1;jumpSize=7;orthogonalLoop=1;jettySize=auto;html=1;strokeColor=#00CC00;strokeWidth=2;fontSize=14;fontColor=#000000;entryX=0;entryY=0.5;entryDx=0;entryDy=0;" parent="1" source="b3holdgG_RNo89Ya_sJd-56" target="hv4VRGCx0HbVGVnPJ9qQ-26" edge="1">
          <mxGeometry relative="1" as="geometry">
            <mxPoint x="260" y="717" as="targetPoint" />
            <Array as="points">
              <mxPoint x="240" y="595" />
              <mxPoint x="240" y="761" />
            </Array>
          </mxGeometry>
        </mxCell>
        <mxCell id="hv4VRGCx0HbVGVnPJ9qQ-64" value="" style="sketch=0;points=[[0,0,0],[0.25,0,0],[0.5,0,0],[0.75,0,0],[1,0,0],[0,1,0],[0.25,1,0],[0.5,1,0],[0.75,1,0],[1,1,0],[0,0.25,0],[0,0.5,0],[0,0.75,0],[1,0.25,0],[1,0.5,0],[1,0.75,0]];outlineConnect=0;fontColor=#232F3E;gradientColor=#945DF2;gradientDirection=north;fillColor=#5A30B5;strokeColor=#ffffff;dashed=0;verticalLabelPosition=bottom;verticalAlign=top;align=center;html=1;fontSize=12;fontStyle=0;aspect=fixed;shape=mxgraph.aws4.resourceIcon;resIcon=mxgraph.aws4.elasticsearch_service;" parent="1" vertex="1">
          <mxGeometry x="410" y="657" width="35" height="35" as="geometry" />
        </mxCell>
        <mxCell id="b3holdgG_RNo89Ya_sJd-79" value="&lt;b&gt;...&lt;/b&gt;" style="text;html=1;strokeColor=none;fillColor=none;align=center;verticalAlign=middle;whiteSpace=wrap;rounded=0;dashed=1;fontSize=14;" parent="1" vertex="1">
          <mxGeometry x="385" y="553" width="60" height="30" as="geometry" />
        </mxCell>
        <mxCell id="r9kRth-0osAs2FGmXrBW-4" value="&lt;b&gt;vpc2&lt;/b&gt;" style="text;html=1;strokeColor=none;fillColor=none;align=center;verticalAlign=middle;whiteSpace=wrap;rounded=0;dashed=1;" parent="1" vertex="1">
          <mxGeometry x="519" y="430" width="35" height="38" as="geometry" />
        </mxCell>
        <mxCell id="r9kRth-0osAs2FGmXrBW-5" value="" style="rounded=0;whiteSpace=wrap;html=1;dashed=1;fillColor=#e1d5e7;strokeColor=#9673a6;aspect=fixed;" parent="1" vertex="1">
          <mxGeometry x="552" y="432.25" width="200.95" height="158.5" as="geometry" />
        </mxCell>
        <mxCell id="b3holdgG_RNo89Ya_sJd-25" value="" style="sketch=0;html=1;dashed=0;whitespace=wrap;fillColor=#2875E2;strokeColor=#ffffff;points=[[0.005,0.63,0],[0.1,0.2,0],[0.9,0.2,0],[0.5,0,0],[0.995,0.63,0],[0.72,0.99,0],[0.5,1,0],[0.28,0.99,0]];shape=mxgraph.kubernetes.icon;prIcon=pod;fontSize=14;" parent="1" vertex="1">
          <mxGeometry x="584.3299999999999" y="467.5" width="50" height="48" as="geometry" />
        </mxCell>
        <mxCell id="b3holdgG_RNo89Ya_sJd-26" value="" style="sketch=0;html=1;dashed=0;whitespace=wrap;fillColor=#2875E2;strokeColor=#ffffff;points=[[0.005,0.63,0],[0.1,0.2,0],[0.9,0.2,0],[0.5,0,0],[0.995,0.63,0],[0.72,0.99,0],[0.5,1,0],[0.28,0.99,0]];shape=mxgraph.kubernetes.icon;prIcon=pod;fontSize=14;" parent="1" vertex="1">
          <mxGeometry x="667" y="467.5" width="50" height="48" as="geometry" />
        </mxCell>
        <mxCell id="b3holdgG_RNo89Ya_sJd-75" value="Xapp" style="text;html=1;strokeColor=none;fillColor=none;align=center;verticalAlign=middle;whiteSpace=wrap;rounded=0;dashed=1;fontSize=14;" parent="1" vertex="1">
          <mxGeometry x="578.3299999999999" y="515.5" width="60" height="30" as="geometry" />
        </mxCell>
        <mxCell id="b3holdgG_RNo89Ya_sJd-78" value="XappServer" style="text;html=1;strokeColor=none;fillColor=none;align=center;verticalAlign=middle;whiteSpace=wrap;rounded=0;dashed=1;fontSize=14;" parent="1" vertex="1">
          <mxGeometry x="667" y="515.5" width="60" height="30" as="geometry" />
        </mxCell>
        <mxCell id="r9kRth-0osAs2FGmXrBW-6" value="" style="sketch=0;aspect=fixed;html=1;points=[];align=center;image;fontSize=12;image=img/lib/mscae/Kubernetes.svg;dashed=1;fontColor=#000000;" parent="1" vertex="1">
          <mxGeometry x="551.62" y="433.5" width="17.71" height="17" as="geometry" />
        </mxCell>
        <mxCell id="PIOF4UT4fwyQFqVbf_Kq-3" value="" style="rounded=0;whiteSpace=wrap;html=1;dashed=1;strokeColor=#0e8088;fontSize=14;fillColor=#b0e3e6;" vertex="1" parent="1">
          <mxGeometry x="554" y="606" width="199" height="90" as="geometry" />
        </mxCell>
        <mxCell id="PIOF4UT4fwyQFqVbf_Kq-4" value="" style="verticalLabelPosition=bottom;html=1;verticalAlign=top;align=center;strokeColor=none;fillColor=#00BEF2;shape=mxgraph.azure.mysql_database;dashed=1;fontSize=14;" vertex="1" parent="1">
          <mxGeometry x="584" y="610" width="40" height="42" as="geometry" />
        </mxCell>
        <mxCell id="PIOF4UT4fwyQFqVbf_Kq-5" value="" style="sketch=0;aspect=fixed;html=1;points=[];align=center;image;fontSize=12;image=img/lib/mscae/Cache_Redis_Product.svg;dashed=1;strokeColor=#7EA6E0;" vertex="1" parent="1">
          <mxGeometry x="585" y="655.2" width="40" height="33.6" as="geometry" />
        </mxCell>
        <mxCell id="PIOF4UT4fwyQFqVbf_Kq-6" value="" style="sketch=0;points=[[0,0,0],[0.25,0,0],[0.5,0,0],[0.75,0,0],[1,0,0],[0,1,0],[0.25,1,0],[0.5,1,0],[0.75,1,0],[1,1,0],[0,0.25,0],[0,0.5,0],[0,0.75,0],[1,0.25,0],[1,0.5,0],[1,0.75,0]];outlineConnect=0;fontColor=#232F3E;gradientColor=#945DF2;gradientDirection=north;fillColor=#5A30B5;strokeColor=#ffffff;dashed=0;verticalLabelPosition=bottom;verticalAlign=top;align=center;html=1;fontSize=12;fontStyle=0;aspect=fixed;shape=mxgraph.aws4.resourceIcon;resIcon=mxgraph.aws4.managed_streaming_for_kafka;" vertex="1" parent="1">
          <mxGeometry x="675" y="613.5" width="35" height="35" as="geometry" />
        </mxCell>
        <mxCell id="PIOF4UT4fwyQFqVbf_Kq-7" value="" style="sketch=0;points=[[0,0,0],[0.25,0,0],[0.5,0,0],[0.75,0,0],[1,0,0],[0,1,0],[0.25,1,0],[0.5,1,0],[0.75,1,0],[1,1,0],[0,0.25,0],[0,0.5,0],[0,0.75,0],[1,0.25,0],[1,0.5,0],[1,0.75,0]];outlineConnect=0;fontColor=#232F3E;gradientColor=#945DF2;gradientDirection=north;fillColor=#5A30B5;strokeColor=#ffffff;dashed=0;verticalLabelPosition=bottom;verticalAlign=top;align=center;html=1;fontSize=12;fontStyle=0;aspect=fixed;shape=mxgraph.aws4.resourceIcon;resIcon=mxgraph.aws4.elasticsearch_service;" vertex="1" parent="1">
          <mxGeometry x="675" y="657" width="35" height="35" as="geometry" />
        </mxCell>
        <mxCell id="PIOF4UT4fwyQFqVbf_Kq-11" style="edgeStyle=orthogonalEdgeStyle;rounded=1;orthogonalLoop=1;jettySize=auto;html=1;entryX=0.5;entryY=0;entryDx=0;entryDy=0;strokeColor=#00CC00;strokeWidth=2;" edge="1" parent="1">
          <mxGeometry relative="1" as="geometry">
            <mxPoint x="653.5" y="591.21" as="sourcePoint" />
            <mxPoint x="653.5" y="608" as="targetPoint" />
          </mxGeometry>
        </mxCell>
        <mxCell id="PIOF4UT4fwyQFqVbf_Kq-13" style="edgeStyle=orthogonalEdgeStyle;rounded=0;orthogonalLoop=1;jettySize=auto;html=1;entryX=0.995;entryY=0.63;entryDx=0;entryDy=0;entryPerimeter=0;strokeColor=#000000;strokeWidth=1;" edge="1" parent="1" source="b3holdgG_RNo89Ya_sJd-92" target="b3holdgG_RNo89Ya_sJd-72">
          <mxGeometry relative="1" as="geometry">
            <Array as="points">
              <mxPoint x="640" y="400" />
              <mxPoint x="365" y="400" />
            </Array>
          </mxGeometry>
        </mxCell>
        <mxCell id="PIOF4UT4fwyQFqVbf_Kq-14" value="api" style="edgeLabel;html=1;align=center;verticalAlign=middle;resizable=0;points=[];" vertex="1" connectable="0" parent="PIOF4UT4fwyQFqVbf_Kq-13">
          <mxGeometry x="-0.6888" y="-1" relative="1" as="geometry">
            <mxPoint as="offset" />
          </mxGeometry>
        </mxCell>
        <mxCell id="PIOF4UT4fwyQFqVbf_Kq-15" style="edgeStyle=orthogonalEdgeStyle;rounded=0;orthogonalLoop=1;jettySize=auto;html=1;entryX=0.5;entryY=0;entryDx=0;entryDy=0;entryPerimeter=0;strokeColor=#000000;strokeWidth=1;" edge="1" parent="1" source="b3holdgG_RNo89Ya_sJd-20" target="b3holdgG_RNo89Ya_sJd-26">
          <mxGeometry relative="1" as="geometry">
            <Array as="points">
              <mxPoint x="271" y="330" />
              <mxPoint x="692" y="330" />
            </Array>
          </mxGeometry>
        </mxCell>
        <mxCell id="PIOF4UT4fwyQFqVbf_Kq-16" value="api" style="edgeLabel;html=1;align=center;verticalAlign=middle;resizable=0;points=[];" vertex="1" connectable="0" parent="PIOF4UT4fwyQFqVbf_Kq-15">
          <mxGeometry x="-0.885" y="1" relative="1" as="geometry">
            <mxPoint as="offset" />
          </mxGeometry>
        </mxCell>
      </root>
    </mxGraphModel>
  </diagram>
</mxfile>
